# xmcd
#
# Track frame offsets: 
#        150
#        13820
#        30831
#        44872
#        61069
#        82269
#        97747
#        113594
#        128106
#        144237
#        182587
#        204387
#        223812
#
# Disc length: 3252 seconds
#
# Revision: 0
# Processed by: cddbd v1.5.2PL0 Copyright (c) Steve Scherf et al.
# Submitted via: ExactAudioCopy v1.0b6
#
DISCID=ad0cb20d
DTITLE=Sena Dagadu - Lots of trees
DYEAR=2013
DGENRE=Funk
TTITLE0=Pressure
TTITLE1=Grit my teeth
TTITLE2=Extra large
TTITLE3=Bucket full of love
TTITLE4=Every blessed thing
TTITLE5=Do you feel me now ?
TTITLE6=Speak to me darling
TTITLE7=Roaming earth
TTITLE8=Pass it on
TTITLE9=Accra city people
TTITLE10=Heavy boots
TTITLE11=Dubadu
TTITLE12=Morning light
EXTD=
EXTT0=
EXTT1=
EXTT2=
EXTT3=
EXTT4=
EXTT5=
EXTT6=
EXTT7=
EXTT8=
EXTT9=
EXTT10=
EXTT11=
EXTT12=
PLAYORDER=
